<svg xmlns="http://www.w3.org/2000/svg" viewBox="0 0 24 24" fill="currentColor" aria-hidden="true">
  <path d="M7.051 2.721c.507-.058 1.165.355 1.469.922l4.048 7.552c.302.566.138 1.066-.368 1.124l-5.078.577c-.507.058-.93.553-.95 1.108l-.198 5.078c-.02.555-.453.989-.969.97l-.626-.02c-.516-.02-.93-.486-.924-1.04l.198-5.078c.02-.555.424-1.05.905-1.108l5.078-.577c.507-.058.67-.558.368-1.124L5.75 3.643c-.303-.567-.14-1.067.366-1.124zM17.786 7.26c.53-.06 1.017.329 1.09.867l1.03 7.25c.073.538-.293 1.03-.823 1.09l-7.25 1.03c-.53.06-1.017-.329-1.09-.867l-.09-.632c-.073-.538.293-1.03.823-1.09l6.303-.896-.896-6.303c-.073-.538.293-1.03.823-1.09z" />
</svg>
