<svg xmlns="http://www.w3.org/2000/svg" viewBox="0 0 24 24" fill="currentColor" aria-hidden="true">
  <path d="M20.52 3.48A11.91 11.91 0 0012.04 0C5.46 0 .1 5.35.1 11.93c0 2.1.55 4.16 1.6 5.97L0 24l6.26-1.64a11.94 11.94 0 005.77 1.47h.01c6.58 0 11.94-5.35 11.94-11.93a11.85 11.85 0 00-3.46-8.42zM12.04 21.82a9.9 9.9 0 01-5.05-1.38l-.36-.21-3.72.97.99-3.62-.23-.37a9.88 9.88 0 01-1.52-5.28c0-5.47 4.45-9.92 9.92-9.92a9.85 9.85 0 017.02 2.91 9.85 9.85 0 012.9 7.02c0 5.47-4.45 9.92-9.95 9.88zm5.44-7.43c-.3-.15-1.77-.87-2.04-.97-.27-.1-.47-.15-.67.15-.2.3-.77.97-.94 1.17-.17.2-.35.22-.65.07-.3-.15-1.26-.46-2.4-1.48-.89-.79-1.49-1.77-1.66-2.07-.17-.3-.02-.46.13-.61.13-.13.3-.35.45-.52.15-.17.2-.3.3-.5.1-.2.05-.37-.03-.52-.07-.15-.67-1.62-.92-2.22-.24-.58-.49-.5-.67-.51h-.57c-.2 0-.52.07-.79.37-.27.3-1.04 1.02-1.04 2.49s1.07 2.89 1.22 3.09c.15.2 2.1 3.2 5.09 4.49.71.31 1.26.49 1.69.63.71.23 1.36.2 1.87.12.57-.09 1.77-.72 2.02-1.42.25-.7.25-1.29.17-1.42-.07-.13-.27-.2-.57-.35z" />
</svg>
